<?xml version="1.0" standalone="no"?>
<!DOCTYPE svg PUBLIC "-//W3C//DTD SVG 20010904//EN"
 "http://www.w3.org/TR/2001/REC-SVG-20010904/DTD/svg10.dtd">
<svg version="1.0" xmlns="http://www.w3.org/2000/svg"
 width="260.000000pt" height="260.000000pt" viewBox="0 0 260.000000 260.000000"
 preserveAspectRatio="xMidYMid meet">
<metadata>
Created by potrace 1.11, written by Peter Selinger 2001-2013
</metadata>
<g transform="translate(0.000000,260.000000) scale(0.100000,-0.100000)"
fill="#000000" stroke="none">
<path d="M1310 1733 c-69 -25 -135 -174 -163 -367 l-13 -89 -52 -18 c-105 -36
-180 -125 -203 -241 -11 -54 -14 -58 -48 -68 -132 -37 -344 -40 -414 -6 -46
23 -71 66 -63 110 14 72 71 110 193 127 87 11 106 26 101 74 -3 28 -6 31 -63
41 -96 17 -135 48 -135 109 0 77 71 128 182 129 58 1 70 -2 93 -24 25 -23 27
-30 22 -87 -6 -74 6 -96 52 -96 42 0 69 28 79 83 29 163 -97 260 -301 231 -95
-13 -151 -37 -205 -86 -79 -71 -93 -179 -31 -250 17 -19 39 -37 50 -40 28 -9
23 -22 -10 -30 -51 -11 -118 -61 -146 -109 -38 -65 -39 -149 -2 -205 55 -83
165 -121 348 -121 112 0 263 21 302 41 14 8 25 4 48 -15 24 -21 41 -26 83 -26
54 0 93 19 124 63 13 17 16 16 51 -22 35 -38 42 -41 89 -41 42 0 58 6 96 35
25 19 46 30 46 24 0 -5 11 -21 25 -34 32 -33 104 -34 154 -4 18 11 34 19 36
17 1 -2 7 -50 13 -108 15 -132 26 -173 60 -212 22 -24 36 -30 67 -30 55 0 99
48 115 128 13 62 8 198 -10 295 -6 29 -9 53 -8 54 2 0 29 -1 61 -3 55 -4 57
-5 57 -32 0 -72 45 -130 100 -130 46 0 81 26 109 82 l22 43 -7 -45 c-9 -61
-11 -63 -92 -133 -131 -115 -181 -193 -182 -284 0 -44 4 -56 31 -82 25 -25 39
-31 75 -31 147 0 211 138 295 644 39 237 41 250 24 263 -20 14 -62 8 -81 -11
-7 -6 -24 -49 -39 -96 -33 -101 -65 -168 -93 -193 -46 -42 -53 12 -22 163 30
145 28 152 -38 142 -41 -6 -56 -28 -78 -115 -19 -76 -18 -75 -127 -79 -62 -3
-70 -5 -85 -30 -14 -24 -15 -36 -3 -110 30 -186 24 -375 -11 -340 -14 14 -28
284 -21 396 l6 89 65 71 c79 86 153 197 183 274 15 38 23 87 26 147 4 82 3 93
-19 125 -67 98 -171 47 -253 -124 -63 -132 -110 -322 -130 -529 -6 -57 -11
-72 -37 -97 -16 -17 -40 -30 -54 -30 -37 0 -40 38 -15 175 12 66 21 130 21
143 0 29 -39 46 -75 32 -34 -13 -52 -59 -72 -183 -14 -93 -18 -105 -49 -134
-60 -58 -114 -36 -114 47 0 15 27 81 59 147 124 245 167 460 113 555 -23 39
-69 57 -112 41z m41 -120 c21 -54 -22 -252 -85 -393 l-15 -35 -1 38 c-1 141
53 417 81 417 5 0 14 -12 20 -27z m605 -9 c3 -19 1 -61 -5 -92 -12 -66 -87
-221 -130 -272 l-30 -35 14 72 c35 184 99 363 129 363 9 0 18 -13 22 -36z
m-831 -550 c0 -103 -1 -106 -28 -130 -15 -13 -39 -24 -52 -24 -72 0 -55 166
24 233 52 44 56 39 56 -79z m1034 -440 c-29 -95 -58 -153 -81 -165 -42 -22
-55 39 -22 102 17 33 114 142 121 136 2 -2 -6 -35 -18 -73z"/>
<path d="M1510 1483 c-78 -29 -80 -124 -2 -148 89 -27 162 99 81 140 -29 15
-53 18 -79 8z"/>
</g>
</svg>
